<?xml version="1.0" encoding="UTF-8" standalone="no"?>
<!DOCTYPE svg PUBLIC "-//W3C//DTD SVG 1.1//EN" "http://www.w3.org/Graphics/SVG/1.1/DTD/svg11.dtd">
<svg width="100%" height="100%" viewBox="0 0 2218 523" version="1.1" xmlns="http://www.w3.org/2000/svg" xmlns:xlink="http://www.w3.org/1999/xlink" xml:space="preserve" xmlns:serif="http://www.serif.com/" style="fill-rule:evenodd;clip-rule:evenodd;stroke-linejoin:round;stroke-miterlimit:2;">
    <g transform="matrix(1,0,0,1,-1371.64,-1492.78)">
        <g transform="matrix(3.10933,0,0,2.96704,-65461.5,-54653)">
            <path d="M21494.4,18959.2L21524.8,19061.3L21553.1,19061.3L21568.6,19009.1C21569.7,19005.7 21571.2,19000.2 21573,18992.7C21574.9,19000.2 21576.3,19005.7 21577.3,19009.1L21593,19061.3L21621.3,19061.3L21651.4,18959.2L21623.7,18959.2L21609.7,19009.9C21609.4,19010.8 21608.1,19016.6 21605.7,19027.5C21604.2,19021.1 21602.6,19015.2 21601.2,19009.9L21601.2,19009.9C21601.2,19009.9 21585.9,18959.2 21585.9,18959.2L21560,18959.2L21544.7,19009.9C21543.1,19015.5 21541.6,19021.2 21540.2,19027C21539,19021 21537.6,19015.3 21536.2,19009.9L21536.2,19009.9C21536.2,19009.9 21522.2,18959.2 21522.2,18959.2L21494.4,18959.2Z" style="fill-rule:nonzero;"/>
        </g>
        <g transform="matrix(3.10933,0,0,2.94922,-65456.4,-54315.7)">
            <path d="M21743.9,19048.3L21743.9,19048.3C21754.6,19037.8 21759.9,19025.1 21759.9,19010.3C21759.9,18995.5 21754.6,18982.9 21743.8,18972.4C21733,18961.9 21719.4,18956.6 21702.9,18956.6C21686.4,18956.6 21672.7,18961.9 21662,18972.4C21651.2,18982.9 21645.8,18995.5 21645.8,19010.3C21645.8,19025.2 21651.2,19037.8 21661.9,19048.2C21672.5,19058.6 21686.2,19063.8 21702.9,19063.8C21719.5,19063.8 21733.2,19058.6 21743.9,19048.3ZM21682.1,19032.5C21676.6,19026.6 21673.9,19019.3 21673.9,19010.3C21673.9,19001.3 21676.7,18993.9 21682.3,18988C21688,18982.2 21694.8,18979.3 21702.9,18979.3C21710.9,18979.3 21717.8,18982.2 21723.4,18988C21729.1,18993.9 21731.9,19001.3 21731.9,19010.3C21731.9,19019.4 21729.1,19026.8 21723.5,19032.6C21718,19038.3 21711.1,19041.1 21702.9,19041.1C21694.7,19041.1 21687.8,19038.3 21682.1,19032.5L21682.1,19032.5Z" style="fill-rule:nonzero;"/>
        </g>
        <g transform="matrix(3.10933,0,0,3.01876,-65451.3,-55634)">
            <path d="M21766.4,18959.5L21766.4,19059.7L21793.6,19059.7L21793.6,19015.8C21793.6,19004.8 21796.3,18998.5 21802,18991.8C21807.6,18985.2 21815.5,18981.9 21825.6,18981.9L21827.2,18981.9L21827.2,18959.2L21825.6,18959.2C21811.6,18959.2 21798.6,18961.2 21790.2,18970.3C21790.2,18970.3 21790.1,18959.5 21790.1,18959.5L21766.4,18959.5Z" style="fill-rule:nonzero;"/>
        </g>
        <g transform="matrix(3.10933,0,0,2.94922,-65444.9,-54315.7)">
            <path d="M21835.4,18923.1L21835.9,19062.1L21863.1,19062.1L21862.6,19028C21862.6,19028 21872.7,19017.3 21872.7,19017.3C21872.7,19017.3 21896.6,19062.1 21896.6,19062.1L21927.8,19062.1L21890.4,18998C21890.4,18998 21926,18959.2 21926,18959.2L21892.8,18959.2L21862.6,18993.9C21862.6,18993.9 21862.6,18923.2 21862.6,18923.2L21835.4,18923.1Z" style="fill-rule:nonzero;"/>
        </g>
        <g transform="matrix(3.10933,0,0,2.94922,-65416.5,-54315.7)">
            <path d="M22069.1,19048.3L22069.1,19048.3C22079.8,19037.8 22085.1,19025.1 22085.1,19010.3C22085.1,18995.5 22079.7,18982.9 22069,18972.4C22058.2,18961.9 22044.6,18956.6 22028.1,18956.6C22011.5,18956.6 21997.9,18961.9 21987.2,18972.4C21976.4,18982.9 21971,18995.5 21971,19010.3C21971,19025.2 21976.3,19037.8 21987.1,19048.2C21997.7,19058.6 22011.4,19063.8 22028.1,19063.8C22044.7,19063.8 22058.4,19058.6 22069.1,19048.3ZM22007.3,19032.5C22001.8,19026.6 21999,19019.3 21999,19010.3C21999,19001.3 22001.9,18993.9 22007.5,18988C22013.2,18982.2 22020,18979.3 22028.1,18979.3C22036.1,18979.3 22043,18982.2 22048.6,18988C22054.3,18993.9 22057.1,19001.3 22057.1,19010.3C22057.1,19019.4 22054.3,19026.8 22048.7,19032.6C22043.1,19038.3 22036.3,19041.1 22028.1,19041.1C22019.9,19041.1 22013,19038.3 22007.3,19032.5L22007.3,19032.5Z" style="fill-rule:nonzero;"/>
        </g>
        <g transform="matrix(1,0,0,1,67.659,-3.63798e-12)">
            <path d="M3521.33,1600.47L3521.33,1596.51L3430.64,1596.51L3430.63,1600.46C3430.58,1625.88 3422.7,1646.83 3406.74,1663.21C3390.88,1679.5 3371.62,1687.64 3348.96,1687.64C3326.31,1687.64 3307.05,1679.5 3291.19,1663.21C3275.23,1646.83 3267.35,1625.88 3267.3,1600.46L3267.29,1596.51L3176.6,1596.51L3176.6,1600.47C3176.67,1645.13 3192.96,1683.3 3225.5,1714.99C3257.95,1746.58 3299.08,1762.5 3348.96,1762.5C3398.85,1762.5 3439.98,1746.58 3472.43,1714.99C3504.97,1683.3 3521.26,1645.13 3521.33,1600.47ZM3228.26,1712.15C3197.02,1681.73 3197.02,1681.73 3228.26,1712.15C3259.98,1743.03 3300.2,1758.54 3348.96,1758.54C3397.73,1758.54 3437.95,1743.03 3469.67,1712.15C3500.91,1681.73 3516.8,1645.18 3517.35,1602.5C3516.8,1645.18 3500.91,1681.73 3469.67,1712.15C3437.95,1743.03 3259.98,1743.03 3228.26,1712.15Z" style="fill-rule:nonzero;"/>
        </g>
        <g transform="matrix(1.45974,0,0,1.50792,-180444,-59065.5)">
            <rect x="125919" y="40360.7" width="71.251" height="71.251"/>
        </g>
        <g transform="matrix(1.27885,0,0,1.31103,-178291,-49555.6)">
            <path d="M141507,39280.6L141539,39336C141550,39336 141560,39336 141565,39336C141593,39336 141616,39329 141632,39315.4C141649,39301.7 141658,39282.3 141658,39257C141658,39257 141658,39019.2 141658,39019.2L141591,39019.2L141591,39254.3C141591,39264.6 141588,39268.8 141582,39273.9C141577,39279 141566,39279.3 141555,39280.6C141549,39281.3 141524,39280.9 141507,39280.6Z" style="fill-rule:nonzero;"/>
        </g>
    </g>
</svg>
